<svg xmlns="http://www.w3.org/2000/svg" xmlns:xlink="http://www.w3.org/1999/xlink" width="200" zoomAndPan="magnify" viewBox="0 0 150 37.5" height="50" preserveAspectRatio="xMidYMid meet" version="1.0"><defs><g/></defs><g fill="#140852" fill-opacity="1"><g transform="translate(37.299546, 27.384868)"><g><path d="M 8.890625 0 L 5 -12.703125 L 4.890625 -12.703125 C 5.035156 -10.117188 5.109375 -8.394531 5.109375 -7.53125 L 5.109375 0 L 2.03125 0 L 2.03125 -16.203125 L 6.71875 -16.203125 L 10.546875 -3.8125 L 10.609375 -3.8125 L 14.671875 -16.203125 L 19.359375 -16.203125 L 19.359375 0 L 16.15625 0 L 16.15625 -7.671875 C 16.15625 -8.023438 16.160156 -8.4375 16.171875 -8.90625 C 16.179688 -9.382812 16.226562 -10.644531 16.3125 -12.6875 L 16.21875 -12.6875 L 12.046875 0 Z M 8.890625 0 "/></g></g></g><g fill="#140852" fill-opacity="1"><g transform="translate(58.692969, 27.384868)"><g><path d="M 6.90625 -10.21875 C 6.1875 -10.21875 5.625 -9.988281 5.21875 -9.53125 C 4.8125 -9.070312 4.578125 -8.425781 4.515625 -7.59375 L 9.265625 -7.59375 C 9.242188 -8.425781 9.019531 -9.070312 8.59375 -9.53125 C 8.175781 -9.988281 7.613281 -10.21875 6.90625 -10.21875 Z M 7.375 0.21875 C 5.382812 0.21875 3.828125 -0.328125 2.703125 -1.421875 C 1.578125 -2.523438 1.015625 -4.085938 1.015625 -6.109375 C 1.015625 -8.179688 1.53125 -9.785156 2.5625 -10.921875 C 3.601562 -12.054688 5.039062 -12.625 6.875 -12.625 C 8.625 -12.625 9.984375 -12.125 10.953125 -11.125 C 11.929688 -10.125 12.421875 -8.742188 12.421875 -6.984375 L 12.421875 -5.34375 L 4.4375 -5.34375 C 4.476562 -4.382812 4.765625 -3.632812 5.296875 -3.09375 C 5.828125 -2.5625 6.570312 -2.296875 7.53125 -2.296875 C 8.28125 -2.296875 8.984375 -2.375 9.640625 -2.53125 C 10.304688 -2.6875 11.003906 -2.929688 11.734375 -3.265625 L 11.734375 -0.65625 C 11.140625 -0.351562 10.503906 -0.132812 9.828125 0 C 9.160156 0.144531 8.34375 0.21875 7.375 0.21875 Z M 7.375 0.21875 "/></g></g></g><g fill="#140852" fill-opacity="1"><g transform="translate(72.098479, 27.384868)"><g><path d="M 10.546875 0 L 10.09375 -1.578125 L 9.921875 -1.578125 C 9.554688 -1.003906 9.039062 -0.5625 8.375 -0.25 C 7.707031 0.0625 6.953125 0.21875 6.109375 0.21875 C 4.648438 0.21875 3.550781 -0.164062 2.8125 -0.9375 C 2.070312 -1.71875 1.703125 -2.84375 1.703125 -4.3125 L 1.703125 -12.390625 L 5.078125 -12.390625 L 5.078125 -5.15625 C 5.078125 -4.257812 5.234375 -3.585938 5.546875 -3.140625 C 5.867188 -2.691406 6.378906 -2.46875 7.078125 -2.46875 C 8.023438 -2.46875 8.707031 -2.78125 9.125 -3.40625 C 9.550781 -4.039062 9.765625 -5.09375 9.765625 -6.5625 L 9.765625 -12.390625 L 13.140625 -12.390625 L 13.140625 0 Z M 10.546875 0 "/></g></g></g><path fill="#000000" d="M 33.53125 10.386719 C 29.066406 2.597656 19.164062 0 11.375 4.464844 C 3.582031 8.925781 0.988281 18.828125 5.449219 26.617188 C 9.914062 34.410156 19.894531 37.007812 27.605469 32.542969 C 35.394531 28.078125 37.992188 18.179688 33.53125 10.386719 Z M 25.984375 29.785156 C 19.734375 33.355469 11.863281 31.246094 8.210938 24.996094 C 4.640625 18.828125 6.828125 10.875 12.996094 7.222656 C 19.246094 3.652344 27.117188 5.761719 30.769531 12.011719 C 34.339844 18.261719 32.230469 26.132812 25.984375 29.785156 Z M 25.332031 17.855469 L 16.8125 12.902344 C 15.839844 12.578125 15.675781 12.742188 15.433594 13.714844 L 15.511719 23.535156 C 15.675781 24.507812 16 24.671875 16.894531 24.347656 L 25.332031 19.476562 C 26.0625 18.910156 26.0625 18.421875 25.332031 17.855469 Z M 25.332031 17.855469 " fill-opacity="1" fill-rule="nonzero"/><g fill="#000000" fill-opacity="1"><g transform="translate(85.38728, 27.384868)"><g><path d="M 5.421875 0 L 2.03125 0 L 2.03125 -16.203125 L 11.328125 -16.203125 L 11.328125 -13.375 L 5.421875 -13.375 L 5.421875 -9.203125 L 10.90625 -9.203125 L 10.90625 -6.40625 L 5.421875 -6.40625 Z M 5.421875 0 "/></g></g></g><g fill="#000000" fill-opacity="1"><g transform="translate(97.840002, 27.384868)"><g><path d="M 1.625 -15.59375 C 1.625 -16.6875 2.238281 -17.234375 3.46875 -17.234375 C 4.695312 -17.234375 5.3125 -16.6875 5.3125 -15.59375 C 5.3125 -15.0625 5.15625 -14.648438 4.84375 -14.359375 C 4.539062 -14.066406 4.082031 -13.921875 3.46875 -13.921875 C 2.238281 -13.921875 1.625 -14.476562 1.625 -15.59375 Z M 5.15625 0 L 1.765625 0 L 1.765625 -12.390625 L 5.15625 -12.390625 Z M 5.15625 0 "/></g></g></g><g fill="#000000" fill-opacity="1"><g transform="translate(104.764336, 27.384868)"><g><path d="M 5.15625 0 L 1.765625 0 L 1.765625 -17.234375 L 5.15625 -17.234375 Z M 5.15625 0 "/></g></g></g><g fill="#000000" fill-opacity="1"><g transform="translate(111.68867, 27.384868)"><g><path d="M 12.859375 0 L 9.484375 0 L 9.484375 -7.234375 C 9.484375 -8.128906 9.332031 -8.800781 9.03125 -9.25 C 8.726562 -9.695312 8.257812 -9.921875 7.625 -9.921875 C 6.757812 -9.921875 6.128906 -9.601562 5.734375 -8.96875 C 5.347656 -8.332031 5.15625 -7.285156 5.15625 -5.828125 L 5.15625 0 L 1.765625 0 L 1.765625 -12.390625 L 4.359375 -12.390625 L 4.8125 -10.796875 L 5 -10.796875 C 5.332031 -11.367188 5.8125 -11.816406 6.4375 -12.140625 C 7.0625 -12.460938 7.78125 -12.625 8.59375 -12.625 C 10.445312 -12.625 11.703125 -12.015625 12.359375 -10.796875 L 12.65625 -10.796875 C 12.988281 -11.378906 13.476562 -11.828125 14.125 -12.140625 C 14.769531 -12.460938 15.5 -12.625 16.3125 -12.625 C 17.71875 -12.625 18.78125 -12.257812 19.5 -11.53125 C 20.21875 -10.8125 20.578125 -9.660156 20.578125 -8.078125 L 20.578125 0 L 17.1875 0 L 17.1875 -7.234375 C 17.1875 -8.128906 17.035156 -8.800781 16.734375 -9.25 C 16.441406 -9.695312 15.972656 -9.921875 15.328125 -9.921875 C 14.503906 -9.921875 13.882812 -9.625 13.46875 -9.03125 C 13.0625 -8.4375 12.859375 -7.5 12.859375 -6.21875 Z M 12.859375 0 "/></g></g></g><g fill="#000000" fill-opacity="1"><g transform="translate(133.968408, 27.384868)"><g><path d="M 6.90625 -10.21875 C 6.1875 -10.21875 5.625 -9.988281 5.21875 -9.53125 C 4.8125 -9.070312 4.578125 -8.425781 4.515625 -7.59375 L 9.265625 -7.59375 C 9.242188 -8.425781 9.019531 -9.070312 8.59375 -9.53125 C 8.175781 -9.988281 7.613281 -10.21875 6.90625 -10.21875 Z M 7.375 0.21875 C 5.382812 0.21875 3.828125 -0.328125 2.703125 -1.421875 C 1.578125 -2.523438 1.015625 -4.085938 1.015625 -6.109375 C 1.015625 -8.179688 1.53125 -9.785156 2.5625 -10.921875 C 3.601562 -12.054688 5.039062 -12.625 6.875 -12.625 C 8.625 -12.625 9.984375 -12.125 10.953125 -11.125 C 11.929688 -10.125 12.421875 -8.742188 12.421875 -6.984375 L 12.421875 -5.34375 L 4.4375 -5.34375 C 4.476562 -4.382812 4.765625 -3.632812 5.296875 -3.09375 C 5.828125 -2.5625 6.570312 -2.296875 7.53125 -2.296875 C 8.28125 -2.296875 8.984375 -2.375 9.640625 -2.53125 C 10.304688 -2.6875 11.003906 -2.929688 11.734375 -3.265625 L 11.734375 -0.65625 C 11.140625 -0.351562 10.503906 -0.132812 9.828125 0 C 9.160156 0.144531 8.34375 0.21875 7.375 0.21875 Z M 7.375 0.21875 "/></g></g></g></svg>