<svg xmlns="http://www.w3.org/2000/svg" xmlns:xlink="http://www.w3.org/1999/xlink" width="500" zoomAndPan="magnify" viewBox="0 0 375 374.999991" height="500" preserveAspectRatio="xMidYMid meet" version="1.0"><path fill="#47a5e1" d="M 329.769531 105.261719 C 284.539062 26.316406 184.210938 0 105.261719 45.230469 C 26.316406 90.460938 0 190.789062 45.230469 269.738281 C 90.460938 348.683594 191.613281 375 269.738281 329.769531 C 348.683594 284.539062 375 184.210938 329.769531 105.261719 Z M 253.289062 301.808594 C 189.96875 337.992188 110.199219 316.613281 73.191406 253.289062 C 37.007812 190.789062 59.210938 110.199219 121.710938 73.191406 C 185.03125 37.007812 264.800781 58.386719 301.808594 121.710938 C 337.992188 185.03125 316.613281 264.800781 253.289062 301.808594 Z M 246.710938 180.921875 L 160.363281 130.757812 C 150.492188 127.46875 148.847656 129.113281 146.382812 138.980469 L 147.203125 238.488281 C 148.847656 248.355469 152.136719 250 161.183594 246.710938 L 246.710938 197.367188 C 254.113281 191.613281 254.113281 186.675781 246.710938 180.921875 Z M 246.710938 180.921875 " fill-opacity="1" fill-rule="nonzero"/></svg>